<?xml version="1.0" encoding="UTF-8"?>
<svg version="1.1" xmlns="http://www.w3.org/2000/svg" width="500" height="500">
<path d="M0 0 C165 0 330 0 500 0 C500 165 500 330 500 500 C335 500 170 500 0 500 C0 335 0 170 0 0 Z " fill="#FEFEFE" transform="translate(0,0)"/>
<path d="M0 0 C2.26979665 -0.10794277 4.54105196 -0.18556176 6.8125 -0.25 C8.07707031 -0.29640625 9.34164062 -0.3428125 10.64453125 -0.390625 C14 0 14 0 15.94921875 2.015625 C16.29597656 2.67046875 16.64273438 3.3253125 17 4 C17.66 2.68 18.32 1.36 19 0 C20.32 0 21.64 0 23 0 C21.3341708 6.16356805 18.12194714 11.48259656 15 17 C13.68 17 12.36 17 11 17 C11.350625 16.113125 11.70125 15.22625 12.0625 14.3125 C13.44490657 9.42799678 12.41395894 6.34512609 10 2 C8.35 2.66 6.7 3.32 5 4 C4.67 6.31 4.34 8.62 4 11 C2.68 11 1.36 11 0 11 C0 7.37 0 3.74 0 0 Z " fill="#141414" transform="translate(234,239)"/>
<path d="M0 0 C2.4375 1.6875 2.4375 1.6875 4 4 C3.83849795 7.39154295 3.41703243 8.58296757 1 11 C-0.875 11.265625 -0.875 11.265625 -3 11.25 C-3.70125 11.25515625 -4.4025 11.2603125 -5.125 11.265625 C-7 11 -7 11 -9 9 C-9.3125 5.5 -9.3125 5.5 -9 2 C-5.50875983 -0.32749345 -4.10777749 -0.50299316 0 0 Z " fill="#131313" transform="translate(229,239)"/>
<path d="M0 0 C0.99 0.66 1.98 1.32 3 2 C3 3.32 3 4.64 3 6 C0.69 6.33 -1.62 6.66 -4 7 C-1.69 7.33 0.62 7.66 3 8 C2.01 9.485 2.01 9.485 1 11 C-4.94232331 11.64825345 -4.94232331 11.64825345 -7.9375 9.8125 C-9.38718434 7.33950907 -9.42317323 5.82115488 -9 3 C-6.72678821 -0.66239677 -4.03980218 -0.42081273 0 0 Z " fill="#212121" transform="translate(193,239)"/>
<path d="M0 0 C1.60875 -0.020625 3.2175 -0.04125 4.875 -0.0625 C5.77992188 -0.07410156 6.68484375 -0.08570313 7.6171875 -0.09765625 C10 0 10 0 12 1 C12 4.3 12 7.6 12 11 C10.68 11 9.36 11 8 11 C8 8.36 8 5.72 8 3 C7.01 3.33 6.02 3.66 5 4 C4.67 6.31 4.34 8.62 4 11 C2.68 11 1.36 11 0 11 C0 7.37 0 3.74 0 0 Z " fill="#2D2D2D" transform="translate(157,239)"/>
<path d="M0 0 C1.60875 -0.061875 3.2175 -0.12375 4.875 -0.1875 C5.77992188 -0.22230469 6.68484375 -0.25710937 7.6171875 -0.29296875 C8.79667969 -0.14794922 8.79667969 -0.14794922 10 0 C12.67927341 4.01891012 12.15601248 6.24161923 12 11 C10.68 11 9.36 11 8 11 C7.67 8.69 7.34 6.38 7 4 C6.01 3.67 5.02 3.34 4 3 C4 5.64 4 8.28 4 11 C2.68 11 1.36 11 0 11 C0 7.37 0 3.74 0 0 Z " fill="#161616" transform="translate(198,239)"/>
<path d="M0 0 C1.65 0 3.3 0 5 0 C5.66 1.32 6.32 2.64 7 4 C7.4125 3.34 7.825 2.68 8.25 2 C8.8275 1.34 9.405 0.68 10 0 C11.32 0 12.64 0 14 0 C12.55049545 3.7910119 10.84827434 7.3874638 9 11 C7.171875 10.81640625 7.171875 10.81640625 5 10 C3.515625 7.71484375 3.515625 7.71484375 2.25 4.9375 C1.60804688 3.55884766 1.60804688 3.55884766 0.953125 2.15234375 C0.63859375 1.44207031 0.3240625 0.73179687 0 0 Z " fill="#131313" transform="translate(170,239)"/>
<path d="M0 0 C1.32 0 2.64 0 4 0 C4 1.32 4 2.64 4 4 C4.66 4 5.32 4 6 4 C6 4.99 6 5.98 6 7 C5.34 7 4.68 7 4 7 C4 8.65 4 10.3 4 12 C4.99 12.33 5.98 12.66 7 13 C7 13.66 7 14.32 7 15 C4.625 15.125 4.625 15.125 2 15 C-0.34240025 12.65759975 -0.36283032 11.82911717 -0.6875 8.625 C-0.77386719 7.85414063 -0.86023438 7.08328125 -0.94921875 6.2890625 C-1.00027694 3.98751626 -0.66593825 2.19308988 0 0 Z " fill="#141414" transform="translate(212,235)"/>
<path d="M0 0 C1.32 0 2.64 0 4 0 C4 5.94 4 11.88 4 18 C2.68 18 1.36 18 0 18 C0 12.06 0 6.12 0 0 Z " fill="#080808" transform="translate(151,232)"/>
<path d="M0 0 C0.33 1.65 0.66 3.3 1 5 C-1.64 5 -4.28 5 -7 5 C-6.01 6.485 -6.01 6.485 -5 8 C-3.02 7.67 -1.04 7.34 1 7 C0.01 8.485 0.01 8.485 -1 10 C-3.31 9.67 -5.62 9.34 -8 9 C-9.32561852 2.61292897 -9.32561852 2.61292897 -7.9375 0 C-5.08594286 -1.47177143 -3.03295907 -0.74138999 0 0 Z " fill="#242424" transform="translate(311,241)"/>
<path d="M0 0 C2.10353495 -0.0810206 4.20795952 -0.13919907 6.3125 -0.1875 C7.48425781 -0.22230469 8.65601563 -0.25710937 9.86328125 -0.29296875 C13 0 13 0 14.90625 1.25 C16.86697193 4.38715509 16.17776593 7.38542599 16 11 C15.34 11 14.68 11 14 11 C13.67 8.36 13.34 5.72 13 3 C11.68 3 10.36 3 9 3 C8.67 5.64 8.34 8.28 8 11 C7.67 11 7.34 11 7 11 C6.67 8.36 6.34 5.72 6 3 C4.68 3 3.36 3 2 3 C1.67 5.64 1.34 8.28 1 11 C0.67 11 0.34 11 0 11 C0 7.37 0 3.74 0 0 Z " fill="#2B2B2B" transform="translate(315,240)"/>
<path d="M0 0 C2.0625 0.25 2.0625 0.25 4 1 C5.60725635 4.21451269 5.05748185 7.43612536 5 11 C3.68 11 2.36 11 1 11 C0.87625 9.88625 0.7525 8.7725 0.625 7.625 C0.3534187 3.96896323 0.3534187 3.96896323 -2 2 C-1.34 1.34 -0.68 0.68 0 0 Z " fill="#1D1D1D" transform="translate(205,239)"/>
<path d="M0 0 C1.2065625 0.0309375 1.2065625 0.0309375 2.4375 0.0625 C2.4375 1.0525 2.4375 2.0425 2.4375 3.0625 C0.7875 2.7325 -0.8625 2.4025 -2.5625 2.0625 C-1.71683261 4.33423092 -1.71683261 4.33423092 0.9375 4.9375 C3.4375 6.0625 3.4375 6.0625 4.3125 8.125 C4.374375 9.0840625 4.374375 9.0840625 4.4375 10.0625 C3.4375 11.0625 3.4375 11.0625 0.5 11.3125 C-0.510625 11.23 -1.52125 11.1475 -2.5625 11.0625 C-3.2225 10.0725 -3.8825 9.0825 -4.5625 8.0625 C-1.5925 8.5575 -1.5925 8.5575 1.4375 9.0625 C1.7675 8.4025 2.0975 7.7425 2.4375 7.0625 C1.261875 6.8459375 1.261875 6.8459375 0.0625 6.625 C-2.5625 6.0625 -2.5625 6.0625 -4.5625 5.0625 C-3.43829114 0.08386076 -3.43829114 0.08386076 0 0 Z " fill="#383838" transform="translate(289.5625,239.9375)"/>
<path d="M0 0 C0.66 0 1.32 0 2 0 C2 1.32 2 2.64 2 4 C2.66 4 3.32 4 4 4 C4 4.66 4 5.32 4 6 C3.34 6 2.68 6 2 6 C2 8.97 2 11.94 2 15 C1.34 15 0.68 15 0 15 C0 12.03 0 9.06 0 6 C-0.66 6 -1.32 6 -2 6 C-2 5.34 -2 4.68 -2 4 C-1.34 4 -0.68 4 0 4 C0 2.68 0 1.36 0 0 Z " fill="#3B3B3B" transform="translate(297,236)"/>
<path d="M0 0 C1.32 0.33 2.64 0.66 4 1 C3.67 3.97 3.34 6.94 3 10 C2.01 10 1.02 10 0 10 C0 6.7 0 3.4 0 0 Z " fill="#010101" transform="translate(158,240)"/>
<path d="M0 0 C0.33 0.99 0.66 1.98 1 3 C-0.75 4.5625 -0.75 4.5625 -3 6 C-5.1875 5.875 -5.1875 5.875 -7 5 C-7.33 4.01 -7.66 3.02 -8 2 C-5.36 2 -2.72 2 0 2 C0 1.34 0 0.68 0 0 Z " fill="#CECECE" transform="translate(312,244)"/>
<path d="M0 0 C1.61949011 2.57213134 2.04408751 3.67669159 1.625 6.75 C1.41875 7.4925 1.2125 8.235 1 9 C0.01 8.67 -0.98 8.34 -2 8 C-2 6.35 -2 4.7 -2 3 C-1.34 3 -0.68 3 0 3 C0 2.01 0 1.02 0 0 Z " fill="#CCCCCC" transform="translate(218,239)"/>
<path d="M0 0 C1.32 0 2.64 0 4 0 C4 1.65 4 3.3 4 5 C2.68 5 1.36 5 0 5 C0 3.35 0 1.7 0 0 Z " fill="#E6E6E6" transform="translate(224,242)"/>
<path d="M0 0 C2.31 0 4.62 0 7 0 C6.34 1.32 5.68 2.64 5 4 C2.525 3.01 2.525 3.01 0 2 C0 1.34 0 0.68 0 0 Z " fill="#E3E3E3" transform="translate(287,242)"/>
<path d="M0 0 C-0.33 0.99 -0.66 1.98 -1 3 C-3.86724686 2.42655063 -4.8614515 2.1385485 -7 0 C-4.3333581 -1.33332095 -2.83319697 -0.67102033 0 0 Z " fill="#E8E8E8" transform="translate(292,247)"/>
<path d="M0 0 C2.4375 0.375 2.4375 0.375 5 1 C5.33 1.66 5.66 2.32 6 3 C3.69 3 1.38 3 -1 3 C-0.67 2.01 -0.34 1.02 0 0 Z " fill="#E4E4E4" transform="translate(305,242)"/>
</svg>
